<svg width="20" height="20" viewBox="0 0 20 20" fill="none" xmlns="http://www.w3.org/2000/svg">
<path fill-rule="evenodd" clip-rule="evenodd" d="M10.0003 8.75019C9.31116 8.75019 8.75033 9.31102 8.75033 10.0002C8.75033 10.6894 9.31116 11.2502 10.0003 11.2502C10.6895 11.2502 11.2503 10.6894 11.2503 10.0002C11.2503 9.31102 10.6895 8.75019 10.0003 8.75019M10.0003 12.9169C8.39199 12.9169 7.08366 11.6085 7.08366 10.0002C7.08366 8.39186 8.39199 7.08353 10.0003 7.08353C11.6087 7.08353 12.917 8.39186 12.917 10.0002C12.917 11.6085 11.6087 12.9169 10.0003 12.9169M18.2237 9.58519C17.6912 8.65852 14.7553 4.01352 9.77449 4.16936C5.16866 4.28686 2.48866 8.34519 1.77699 9.58519C1.63033 9.84269 1.63033 10.1577 1.77699 10.4152C2.30199 11.3294 5.13533 15.8335 10.0212 15.8335C10.0887 15.8335 10.157 15.8327 10.2262 15.831C14.832 15.7135 17.512 11.6552 18.2237 10.4152C18.3703 10.1577 18.3703 9.84269 18.2237 9.58519" fill="#2E3A59"/>
<mask id="mask0_308_57" style="mask-type:luminance" maskUnits="userSpaceOnUse" x="1" y="4" width="18" height="12">
<path fill-rule="evenodd" clip-rule="evenodd" d="M10.0003 8.75019C9.31116 8.75019 8.75033 9.31102 8.75033 10.0002C8.75033 10.6894 9.31116 11.2502 10.0003 11.2502C10.6895 11.2502 11.2503 10.6894 11.2503 10.0002C11.2503 9.31102 10.6895 8.75019 10.0003 8.75019M10.0003 12.9169C8.39199 12.9169 7.08366 11.6085 7.08366 10.0002C7.08366 8.39186 8.39199 7.08353 10.0003 7.08353C11.6087 7.08353 12.917 8.39186 12.917 10.0002C12.917 11.6085 11.6087 12.9169 10.0003 12.9169M18.2237 9.58519C17.6912 8.65852 14.7553 4.01352 9.77449 4.16936C5.16866 4.28686 2.48866 8.34519 1.77699 9.58519C1.63033 9.84269 1.63033 10.1577 1.77699 10.4152C2.30199 11.3294 5.13533 15.8335 10.0212 15.8335C10.0887 15.8335 10.157 15.8327 10.2262 15.831C14.832 15.7135 17.512 11.6552 18.2237 10.4152C18.3703 10.1577 18.3703 9.84269 18.2237 9.58519" fill="white"/>
</mask>
<g mask="url(#mask0_308_57)">
<rect width="20" height="20" fill="#2E3A59"/>
</g>
</svg>
