<svg width="20" height="20" viewBox="0 0 20 20" fill="none" xmlns="http://www.w3.org/2000/svg">
<path fill-rule="evenodd" clip-rule="evenodd" d="M13.3332 5.83333C13.3332 7.67167 11.8382 9.16667 9.99984 9.16667C8.1615 9.16667 6.6665 7.67167 6.6665 5.83333C6.6665 3.995 8.1615 2.5 9.99984 2.5C11.8382 2.5 13.3332 3.995 13.3332 5.83333ZM15.8332 16.6667C15.8332 17.1267 15.4607 17.5 14.9998 17.5H4.99984C4.539 17.5 4.1665 17.1267 4.1665 16.6667C4.1665 13.45 6.784 10.8333 9.99984 10.8333C13.2157 10.8333 15.8332 13.45 15.8332 16.6667Z" fill="#2E3A59"/>
<mask id="mask0_3635_8242" style="mask-type:luminance" maskUnits="userSpaceOnUse" x="4" y="2" width="12" height="16">
<path fill-rule="evenodd" clip-rule="evenodd" d="M13.3332 5.83333C13.3332 7.67167 11.8382 9.16667 9.99984 9.16667C8.1615 9.16667 6.6665 7.67167 6.6665 5.83333C6.6665 3.995 8.1615 2.5 9.99984 2.5C11.8382 2.5 13.3332 3.995 13.3332 5.83333ZM15.8332 16.6667C15.8332 17.1267 15.4607 17.5 14.9998 17.5H4.99984C4.539 17.5 4.1665 17.1267 4.1665 16.6667C4.1665 13.45 6.784 10.8333 9.99984 10.8333C13.2157 10.8333 15.8332 13.45 15.8332 16.6667Z" fill="white"/>
</mask>
<g mask="url(#mask0_3635_8242)">
<rect width="20" height="20" fill="#2E3A59"/>
</g>
</svg>
